<mxfile host="Electron" agent="Mozilla/5.0 (Windows NT 10.0; Win64; x64) AppleWebKit/537.36 (KHTML, like Gecko) draw.io/26.0.15 Chrome/132.0.6834.196 Electron/34.2.0 Safari/537.36" version="26.0.15">
  <diagram name="Page-1" id="oj7Pvu20dOQANZf0hOIa">
    <mxGraphModel dx="712" dy="2481" grid="1" gridSize="10" guides="1" tooltips="1" connect="1" arrows="1" fold="1" page="1" pageScale="1" pageWidth="1169" pageHeight="1654" math="0" shadow="0">
      <root>
        <mxCell id="0" />
        <mxCell id="1" parent="0" />
        <mxCell id="imIIMWhFzQHuwgR36PBr-1" value="Passenger" style="swimlane;childLayout=stackLayout;horizontal=1;startSize=50;horizontalStack=0;rounded=1;fontSize=14;fontStyle=0;strokeWidth=2;resizeParent=0;resizeLast=1;shadow=0;dashed=0;align=center;arcSize=4;whiteSpace=wrap;html=1;" vertex="1" parent="1">
          <mxGeometry x="200" y="230" width="160" height="210" as="geometry" />
        </mxCell>
        <mxCell id="imIIMWhFzQHuwgR36PBr-2" value="FirstName (string)&lt;div&gt;LastName (string)&lt;/div&gt;" style="align=left;strokeColor=none;fillColor=none;spacingLeft=4;spacingRight=4;fontSize=12;verticalAlign=top;resizable=0;rotatable=0;part=1;html=1;whiteSpace=wrap;" vertex="1" parent="imIIMWhFzQHuwgR36PBr-1">
          <mxGeometry y="50" width="160" height="160" as="geometry" />
        </mxCell>
        <mxCell id="imIIMWhFzQHuwgR36PBr-3" value="Flight" style="swimlane;childLayout=stackLayout;horizontal=1;startSize=50;horizontalStack=0;rounded=1;fontSize=14;fontStyle=0;strokeWidth=2;resizeParent=0;resizeLast=1;shadow=0;dashed=0;align=center;arcSize=4;whiteSpace=wrap;html=1;" vertex="1" parent="1">
          <mxGeometry x="540" y="240" width="200" height="210" as="geometry" />
        </mxCell>
        <mxCell id="imIIMWhFzQHuwgR36PBr-4" value="Number (string)&lt;div&gt;DepartureDateTime (dateTime)&lt;/div&gt;&lt;div&gt;ArrivalDateTime&amp;nbsp;&lt;span style=&quot;background-color: transparent; color: light-dark(rgb(0, 0, 0), rgb(255, 255, 255));&quot;&gt;(dateTime)&lt;/span&gt;&lt;/div&gt;&lt;div&gt;DurationInMinutes (integer)&amp;nbsp;&lt;/div&gt;&lt;div&gt;DistanceInMiles (integer)&lt;/div&gt;&lt;div&gt;DepartureAirportid (int)&lt;/div&gt;&lt;div&gt;ArrivalAirportid (int)&lt;/div&gt;" style="align=left;strokeColor=none;fillColor=none;spacingLeft=4;spacingRight=4;fontSize=12;verticalAlign=top;resizable=0;rotatable=0;part=1;html=1;whiteSpace=wrap;" vertex="1" parent="imIIMWhFzQHuwgR36PBr-3">
          <mxGeometry y="50" width="200" height="160" as="geometry" />
        </mxCell>
        <mxCell id="imIIMWhFzQHuwgR36PBr-5" value="Airport" style="swimlane;childLayout=stackLayout;horizontal=1;startSize=50;horizontalStack=0;rounded=1;fontSize=14;fontStyle=0;strokeWidth=2;resizeParent=0;resizeLast=1;shadow=0;dashed=0;align=center;arcSize=4;whiteSpace=wrap;html=1;" vertex="1" parent="1">
          <mxGeometry x="250" y="490" width="160" height="200" as="geometry" />
        </mxCell>
        <mxCell id="imIIMWhFzQHuwgR36PBr-6" value="IATACode (string)&lt;div&gt;&lt;div&gt;Name&amp;nbsp;&lt;span style=&quot;background-color: transparent; color: light-dark(rgb(0, 0, 0), rgb(255, 255, 255));&quot;&gt;(string)&lt;/span&gt;&lt;/div&gt;&lt;div&gt;City&amp;nbsp;&lt;span style=&quot;background-color: transparent; color: light-dark(rgb(0, 0, 0), rgb(255, 255, 255));&quot;&gt;(string)&lt;/span&gt;&lt;/div&gt;&lt;div&gt;State&amp;nbsp;&lt;span style=&quot;background-color: transparent; color: light-dark(rgb(0, 0, 0), rgb(255, 255, 255));&quot;&gt;(string)&lt;/span&gt;&lt;/div&gt;&lt;/div&gt;" style="align=left;strokeColor=none;fillColor=none;spacingLeft=4;spacingRight=4;fontSize=12;verticalAlign=top;resizable=0;rotatable=0;part=1;html=1;whiteSpace=wrap;" vertex="1" parent="imIIMWhFzQHuwgR36PBr-5">
          <mxGeometry y="50" width="160" height="150" as="geometry" />
        </mxCell>
        <mxCell id="imIIMWhFzQHuwgR36PBr-7" value="" style="edgeStyle=entityRelationEdgeStyle;fontSize=12;html=1;endArrow=ERmany;startArrow=ERmany;rounded=0;exitX=1.013;exitY=0.42;exitDx=0;exitDy=0;exitPerimeter=0;entryX=-0.012;entryY=0.881;entryDx=0;entryDy=0;entryPerimeter=0;" edge="1" parent="1" source="imIIMWhFzQHuwgR36PBr-6" target="imIIMWhFzQHuwgR36PBr-4">
          <mxGeometry width="100" height="100" relative="1" as="geometry">
            <mxPoint x="590" y="632.95" as="sourcePoint" />
            <mxPoint x="631.9200000000001" y="460" as="targetPoint" />
          </mxGeometry>
        </mxCell>
        <mxCell id="imIIMWhFzQHuwgR36PBr-8" value="Departs/Arrives at" style="edgeLabel;html=1;align=center;verticalAlign=middle;resizable=0;points=[];" vertex="1" connectable="0" parent="imIIMWhFzQHuwgR36PBr-7">
          <mxGeometry x="0.0502" y="4" relative="1" as="geometry">
            <mxPoint x="1" as="offset" />
          </mxGeometry>
        </mxCell>
        <mxCell id="imIIMWhFzQHuwgR36PBr-9" value="Ticket" style="swimlane;childLayout=stackLayout;horizontal=1;startSize=50;horizontalStack=0;rounded=1;fontSize=14;fontStyle=0;strokeWidth=2;resizeParent=0;resizeLast=1;shadow=0;dashed=0;align=center;arcSize=4;whiteSpace=wrap;html=1;" vertex="1" parent="1">
          <mxGeometry x="440" y="80" width="190" height="140" as="geometry" />
        </mxCell>
        <mxCell id="imIIMWhFzQHuwgR36PBr-10" value="TicketNumber (string)&lt;div&gt;Price (float)&lt;/div&gt;&lt;div&gt;&lt;span style=&quot;background-color: transparent; color: light-dark(rgb(0, 0, 0), rgb(255, 255, 255));&quot;&gt;ConfirmationNumber (string)&lt;/span&gt;&lt;/div&gt;" style="align=left;strokeColor=none;fillColor=none;spacingLeft=4;spacingRight=4;fontSize=12;verticalAlign=top;resizable=0;rotatable=0;part=1;html=1;whiteSpace=wrap;" vertex="1" parent="imIIMWhFzQHuwgR36PBr-9">
          <mxGeometry y="50" width="190" height="90" as="geometry" />
        </mxCell>
        <mxCell id="imIIMWhFzQHuwgR36PBr-11" value="" style="edgeStyle=entityRelationEdgeStyle;fontSize=12;html=1;endArrow=ERmany;startArrow=ERone;rounded=0;entryX=-0.019;entryY=0.442;entryDx=0;entryDy=0;entryPerimeter=0;exitX=1.019;exitY=0.356;exitDx=0;exitDy=0;exitPerimeter=0;startFill=0;" edge="1" parent="1" source="imIIMWhFzQHuwgR36PBr-2" target="imIIMWhFzQHuwgR36PBr-9">
          <mxGeometry width="100" height="100" relative="1" as="geometry">
            <mxPoint x="250" y="180" as="sourcePoint" />
            <mxPoint x="370" y="140" as="targetPoint" />
          </mxGeometry>
        </mxCell>
        <mxCell id="imIIMWhFzQHuwgR36PBr-12" value="purchases" style="edgeLabel;html=1;align=center;verticalAlign=middle;resizable=0;points=[];" vertex="1" connectable="0" parent="imIIMWhFzQHuwgR36PBr-11">
          <mxGeometry x="0.1107" y="-1" relative="1" as="geometry">
            <mxPoint as="offset" />
          </mxGeometry>
        </mxCell>
        <mxCell id="imIIMWhFzQHuwgR36PBr-13" value="" style="edgeStyle=entityRelationEdgeStyle;fontSize=12;html=1;endArrow=ERmany;startArrow=ERone;rounded=0;entryX=1.006;entryY=0.114;entryDx=0;entryDy=0;entryPerimeter=0;exitX=1.019;exitY=0.356;exitDx=0;exitDy=0;exitPerimeter=0;endFill=0;startFill=0;" edge="1" parent="1" target="imIIMWhFzQHuwgR36PBr-10">
          <mxGeometry width="100" height="100" relative="1" as="geometry">
            <mxPoint x="740" y="354" as="sourcePoint" />
            <mxPoint x="640" y="140.99" as="targetPoint" />
          </mxGeometry>
        </mxCell>
        <mxCell id="imIIMWhFzQHuwgR36PBr-14" value="issued for" style="edgeLabel;html=1;align=center;verticalAlign=middle;resizable=0;points=[];" vertex="1" connectable="0" parent="imIIMWhFzQHuwgR36PBr-13">
          <mxGeometry x="0.1107" y="-1" relative="1" as="geometry">
            <mxPoint as="offset" />
          </mxGeometry>
        </mxCell>
        <mxCell id="imIIMWhFzQHuwgR36PBr-15" value="Airline" style="swimlane;childLayout=stackLayout;horizontal=1;startSize=50;horizontalStack=0;rounded=1;fontSize=14;fontStyle=0;strokeWidth=2;resizeParent=0;resizeLast=1;shadow=0;dashed=0;align=center;arcSize=4;whiteSpace=wrap;html=1;" vertex="1" parent="1">
          <mxGeometry x="620" y="490" width="160" height="120" as="geometry" />
        </mxCell>
        <mxCell id="imIIMWhFzQHuwgR36PBr-16" value="Name (string)" style="align=left;strokeColor=none;fillColor=none;spacingLeft=4;spacingRight=4;fontSize=12;verticalAlign=top;resizable=0;rotatable=0;part=1;html=1;whiteSpace=wrap;" vertex="1" parent="imIIMWhFzQHuwgR36PBr-15">
          <mxGeometry y="50" width="160" height="70" as="geometry" />
        </mxCell>
        <mxCell id="imIIMWhFzQHuwgR36PBr-17" value="" style="edgeStyle=entityRelationEdgeStyle;fontSize=12;html=1;endArrow=ERoneToMany;rounded=0;entryX=1;entryY=0.5;entryDx=0;entryDy=0;" edge="1" parent="1" target="imIIMWhFzQHuwgR36PBr-4">
          <mxGeometry width="100" height="100" relative="1" as="geometry">
            <mxPoint x="780" y="560" as="sourcePoint" />
            <mxPoint x="880" y="460" as="targetPoint" />
          </mxGeometry>
        </mxCell>
        <mxCell id="imIIMWhFzQHuwgR36PBr-18" value="FlightClass" style="swimlane;childLayout=stackLayout;horizontal=1;startSize=50;horizontalStack=0;rounded=1;fontSize=14;fontStyle=0;strokeWidth=2;resizeParent=0;resizeLast=1;shadow=0;dashed=0;align=center;arcSize=4;whiteSpace=wrap;html=1;" vertex="1" parent="1">
          <mxGeometry x="210" y="-50" width="160" height="120" as="geometry" />
        </mxCell>
        <mxCell id="imIIMWhFzQHuwgR36PBr-19" value="Name" style="align=left;strokeColor=none;fillColor=none;spacingLeft=4;spacingRight=4;fontSize=12;verticalAlign=top;resizable=0;rotatable=0;part=1;html=1;whiteSpace=wrap;" vertex="1" parent="imIIMWhFzQHuwgR36PBr-18">
          <mxGeometry y="50" width="160" height="70" as="geometry" />
        </mxCell>
        <mxCell id="imIIMWhFzQHuwgR36PBr-20" value="" style="edgeStyle=entityRelationEdgeStyle;fontSize=12;html=1;endArrow=ERmany;rounded=0;entryX=0;entryY=0.25;entryDx=0;entryDy=0;" edge="1" parent="1" target="imIIMWhFzQHuwgR36PBr-9">
          <mxGeometry width="100" height="100" relative="1" as="geometry">
            <mxPoint x="370" y="20" as="sourcePoint" />
            <mxPoint x="470" y="-80" as="targetPoint" />
          </mxGeometry>
        </mxCell>
      </root>
    </mxGraphModel>
  </diagram>
</mxfile>
